<svg width="194" height="196" viewBox="0 0 194 196" fill="none" xmlns="http://www.w3.org/2000/svg">
<g filter="url(#filter0_d_1_78)">
<path d="M107.397 26.1678C107.274 26.1678 107.169 26.1423 107.083 26.0913C106.997 26.0404 106.929 25.9512 106.88 25.8237L105.809 23.2244L103.112 22.0012C102.989 21.9503 102.903 21.8802 102.854 21.791C102.804 21.7018 102.78 21.5935 102.78 21.4661C102.78 21.3387 102.804 21.2304 102.854 21.1412C102.903 21.052 102.989 20.9819 103.112 20.9309L105.809 19.7459L106.88 17.2613C106.929 17.1339 106.997 17.0447 107.083 16.9937C107.169 16.9428 107.274 16.9173 107.397 16.9173C107.52 16.9173 107.625 16.9428 107.711 16.9937C107.797 17.0447 107.865 17.1339 107.914 17.2613L108.985 19.7459L111.682 20.9309C111.805 20.9819 111.891 21.052 111.94 21.1412C111.99 21.2304 112.014 21.3387 112.014 21.4661C112.014 21.5935 111.99 21.7018 111.94 21.791C111.891 21.8802 111.805 21.9503 111.682 22.0012L108.985 23.2244L107.914 25.8237C107.865 25.9512 107.797 26.0404 107.711 26.0913C107.625 26.1423 107.52 26.1678 107.397 26.1678ZM107.397 48.95C107.298 48.95 107.2 48.9245 107.101 48.8735C107.003 48.8225 106.929 48.7334 106.88 48.6059L105.809 46.1213L103.149 44.9363C103.026 44.8854 102.94 44.8153 102.89 44.7261C102.841 44.6369 102.817 44.5286 102.817 44.4012C102.817 44.2738 102.841 44.1654 102.89 44.0763C102.94 43.9871 103.026 43.917 103.149 43.866L105.809 42.681L106.88 40.0435C106.929 39.9161 106.997 39.8269 107.083 39.7759C107.169 39.725 107.274 39.6995 107.397 39.6995C107.52 39.6995 107.625 39.725 107.711 39.7759C107.797 39.8269 107.865 39.9161 107.914 40.0435L108.985 42.681L111.645 43.866C111.768 43.917 111.854 43.9871 111.903 44.0763C111.953 44.1654 111.977 44.2738 111.977 44.4012C111.977 44.5286 111.953 44.6369 111.903 44.7261C111.854 44.8153 111.768 44.8854 111.645 44.9363L108.985 46.1213L107.914 48.6059C107.865 48.7334 107.791 48.8225 107.692 48.8735C107.594 48.9245 107.495 48.95 107.397 48.95ZM91.1811 42.337C90.9841 42.337 90.7933 42.2797 90.6086 42.165C90.4239 42.0503 90.2823 41.891 90.1838 41.6872L87.7828 36.3739L82.6115 33.9657C82.4145 33.8638 82.2606 33.7172 82.1498 33.5261C82.0389 33.335 81.9835 33.1375 81.9835 32.9336C81.9835 32.7298 82.0389 32.5323 82.1498 32.3411C82.2606 32.15 82.4145 32.0035 82.6115 31.9015L87.7828 29.4934L90.1838 24.2183C90.2823 23.9889 90.4239 23.8169 90.6086 23.7022C90.7933 23.5876 90.9841 23.5302 91.1811 23.5302C91.3781 23.5302 91.569 23.5876 91.7537 23.7022C91.9383 23.8169 92.0799 23.9762 92.1784 24.1801L94.6164 29.4934L99.7507 31.9015C99.9724 32.0035 100.139 32.15 100.249 32.3411C100.36 32.5323 100.416 32.7298 100.416 32.9336C100.416 33.1375 100.36 33.335 100.249 33.5261C100.139 33.7172 99.9724 33.8638 99.7507 33.9657L94.6164 36.3739L92.1784 41.6872C92.0799 41.9165 91.9383 42.0822 91.7537 42.1841C91.569 42.286 91.3781 42.337 91.1811 42.337Z" fill="#435334"/>
</g>
<defs>
<filter id="filter0_d_1_78" x="-9.92834e-05" y="2.29116e-05" width="193.998" height="196" filterUnits="userSpaceOnUse" color-interpolation-filters="sRGB">
<feFlood flood-opacity="0" result="BackgroundImageFix"/>
<feColorMatrix in="SourceAlpha" type="matrix" values="0 0 0 0 0 0 0 0 0 0 0 0 0 0 0 0 0 0 127 0" result="hardAlpha"/>
<feOffset dy="32.5"/>
<feGaussianBlur stdDeviation="20.475"/>
<feComposite in2="hardAlpha" operator="out"/>
<feColorMatrix type="matrix" values="0 0 0 0 0.262745 0 0 0 0 0.0941176 0 0 0 0 1 0 0 0 0.28 0"/>
<feBlend mode="normal" in2="BackgroundImageFix" result="effect1_dropShadow_1_78"/>
<feBlend mode="normal" in="SourceGraphic" in2="effect1_dropShadow_1_78" result="shape"/>
</filter>
</defs>
</svg>
