<svg width="22" height="22" viewBox="0 0 22 22" fill="none" xmlns="http://www.w3.org/2000/svg">
<path d="M15.5325 0.0531457C15.7474 0.143367 15.902 0.336698 15.945 0.5644L16.7999 5.20006L21.4356 6.05072C21.6633 6.09368 21.8566 6.24834 21.9469 6.46316C22.0371 6.67797 22.0113 6.92286 21.8781 7.11619L19.2015 11L21.8781 14.8795C22.0113 15.0728 22.0371 15.3177 21.9469 15.5325C21.8566 15.7474 21.6633 15.902 21.4356 15.945L16.7999 16.7999L15.945 21.4356C15.902 21.6633 15.7474 21.8566 15.5325 21.9469C15.3177 22.0371 15.0728 22.0113 14.8795 21.8781L11 19.2015L7.12048 21.8781C6.92715 22.0113 6.68226 22.0371 6.46745 21.9469C6.25264 21.8566 6.09797 21.6633 6.05501 21.4356L5.20006 16.7999L0.5644 15.945C0.336698 15.902 0.143367 15.7474 0.0531457 15.5325C-0.0370756 15.3177 -0.0112981 15.0728 0.121886 14.8795L2.79845 11L0.121886 7.12048C-0.0112981 6.92715 -0.0370756 6.68226 0.0531457 6.46745C0.143367 6.25264 0.336698 6.09797 0.5644 6.05501L5.20006 5.20006L6.05501 0.5644C6.09797 0.336698 6.25264 0.143367 6.46745 0.0531457C6.68226 -0.0370756 6.92715 -0.0112981 7.12048 0.121886L11 2.79845L14.8795 0.121886C15.0728 -0.0112981 15.3177 -0.0370756 15.5325 0.0531457ZM6.8756 11C6.8756 9.90614 7.31013 8.85708 8.08361 8.08361C8.85708 7.31013 9.90614 6.8756 11 6.8756C12.0939 6.8756 13.1429 7.31013 13.9164 8.08361C14.6899 8.85708 15.1244 9.90614 15.1244 11C15.1244 12.0939 14.6899 13.1429 13.9164 13.9164C13.1429 14.6899 12.0939 15.1244 11 15.1244C9.90614 15.1244 8.85708 14.6899 8.08361 13.9164C7.31013 13.1429 6.8756 12.0939 6.8756 11ZM16.4992 11C16.4992 9.54152 15.9198 8.14278 14.8885 7.11147C13.8572 6.08017 12.4585 5.50079 11 5.50079C9.54152 5.50079 8.14278 6.08017 7.11147 7.11147C6.08017 8.14278 5.50079 9.54152 5.50079 11C5.50079 12.4585 6.08017 13.8572 7.11147 14.8885C8.14278 15.9198 9.54152 16.4992 11 16.4992C12.4585 16.4992 13.8572 15.9198 14.8885 14.8885C15.9198 13.8572 16.4992 12.4585 16.4992 11Z" fill="white"/>
</svg>
