<svg width="28" height="28" viewBox="0 0 28 28" fill="none" xmlns="http://www.w3.org/2000/svg">
<path d="M15.1706 22.3293C15.3272 22.4853 15.4514 22.6707 15.5362 22.8748C15.621 23.079 15.6646 23.2978 15.6646 23.5189C15.6646 23.7399 15.621 23.9588 15.5362 24.1629C15.4514 24.367 15.3272 24.5524 15.1706 24.7084L14.3393 25.5398C12.7641 27.115 10.6275 28 8.39979 28C6.17202 28 4.03551 27.115 2.46024 25.5398C0.884975 23.9645 0 21.828 0 19.6002C0 17.3725 0.884975 15.2359 2.46024 13.6607L5.83587 10.2864C7.34943 8.76914 9.38585 7.88798 11.528 7.82345C13.6702 7.75893 15.756 8.51591 17.3581 9.93936C17.5235 10.0864 17.6583 10.2646 17.7549 10.4637C17.8514 10.6628 17.9078 10.879 17.9208 11.1C17.9338 11.3209 17.9032 11.5422 17.8306 11.7513C17.7581 11.9604 17.6451 12.1531 17.498 12.3185C17.351 12.4839 17.1728 12.6188 16.9737 12.7153C16.7746 12.8119 16.5584 12.8683 16.3374 12.8813C16.1165 12.8942 15.8952 12.8636 15.6861 12.7911C15.477 12.7185 15.2843 12.6055 15.1189 12.4585C14.1581 11.6052 12.9077 11.1513 11.6233 11.1896C10.3389 11.2278 9.11773 11.7553 8.20945 12.6642L4.83662 16.0342C3.89161 16.9793 3.36071 18.261 3.36071 19.5974C3.36071 20.9339 3.89161 22.2156 4.83662 23.1606C5.78163 24.1056 7.06334 24.6365 8.39979 24.6365C9.73623 24.6365 11.0179 24.1056 11.963 23.1606L12.7943 22.3293C12.9502 22.1731 13.1355 22.0493 13.3393 21.9647C13.5432 21.8802 13.7618 21.8367 13.9825 21.8367C14.2032 21.8367 14.4217 21.8802 14.6256 21.9647C14.8295 22.0493 15.0147 22.1731 15.1706 22.3293ZM25.5383 2.45615C23.9617 0.883303 21.8257 0 19.5987 0C17.3718 0 15.2357 0.883303 13.6592 2.45615L12.8279 3.28746C12.5124 3.60296 12.3351 4.03086 12.3351 4.47705C12.3351 4.92323 12.5124 5.35114 12.8279 5.66664C13.1434 5.98213 13.5713 6.15938 14.0174 6.15938C14.4636 6.15938 14.8915 5.98213 15.207 5.66664L16.0383 4.83532C16.9834 3.89031 18.2651 3.35941 19.6015 3.35941C20.938 3.35941 22.2197 3.89031 23.1647 4.83532C24.1097 5.78033 24.6406 7.06204 24.6406 8.39849C24.6406 9.73494 24.1097 11.0166 23.1647 11.9617L19.7904 15.3373C18.8814 16.2458 17.6595 16.7726 16.3748 16.8098C15.0901 16.847 13.8398 16.3918 12.8796 15.5374C12.7142 15.3904 12.5215 15.2774 12.3124 15.2048C12.1033 15.1323 11.882 15.1017 11.6611 15.1147C11.4401 15.1276 11.2239 15.184 11.0248 15.2806C10.8257 15.3771 10.6475 15.512 10.5005 15.6774C10.3534 15.8428 10.2404 16.0355 10.1679 16.2446C10.0953 16.4537 10.0647 16.675 10.0777 16.8959C10.0907 17.1169 10.1471 17.3331 10.2436 17.5322C10.3402 17.7313 10.475 17.9095 10.6404 18.0565C12.2414 19.4797 14.3258 20.2371 16.467 20.1739C18.6081 20.1107 20.6442 19.2316 22.1584 17.7165L25.5341 14.3422C27.1087 12.7661 27.9936 10.6294 27.9944 8.40146C27.9952 6.17347 27.1118 4.03622 25.5383 2.45894V2.45615Z" fill="#435334"/>
</svg>
