<svg width="44" height="39" viewBox="0 0 44 39" fill="none" xmlns="http://www.w3.org/2000/svg">
<path d="M26.9328 0.080781C29.1672 0.527656 30.6195 2.70187 30.1727 4.93625L29.975 5.91594C29.5195 8.21047 28.6773 10.3933 27.5 12.3784H39.875C42.1523 12.3784 44 14.2261 44 16.5034C44 18.0933 43.0977 19.4769 41.7742 20.1644C42.7109 20.9206 43.3125 22.0808 43.3125 23.3784C43.3125 25.3894 41.8688 27.0652 39.9695 27.4261C40.3477 28.0534 40.5625 28.7839 40.5625 29.5659C40.5625 31.3964 39.368 32.9519 37.718 33.4847C37.7781 33.7683 37.8125 34.0691 37.8125 34.3784C37.8125 36.6558 35.9648 38.5034 33.6875 38.5034H25.3086C23.6758 38.5034 22.0859 38.0222 20.7281 37.1198L17.4195 34.9113C15.125 33.3816 13.75 30.8034 13.75 28.0448V18.4886C13.75 15.9792 14.893 13.6159 16.8438 12.0433L17.4797 11.5362C19.757 9.71437 21.3125 7.15344 21.8797 4.30031L22.0773 3.32062C22.5242 1.08625 24.6984 -0.366094 26.9328 0.080781ZM2.75 13.7534H8.25C9.77109 13.7534 11 14.9823 11 16.5034V35.7534C11 37.2745 9.77109 38.5034 8.25 38.5034H2.75C1.22891 38.5034 0 37.2745 0 35.7534V16.5034C0 14.9823 1.22891 13.7534 2.75 13.7534Z" fill="#435334"/>
</svg>
