<svg width="28" height="28" viewBox="0 0 28 28" fill="none" xmlns="http://www.w3.org/2000/svg">
<path d="M13.9176 28C10.0674 28 6.78525 26.6361 4.07113 23.9082C1.35704 21.1803 0 17.8815 0 14.0118C0 10.1421 1.35704 6.83938 4.07113 4.10363C6.78525 1.36787 10.0674 0 13.9176 0C16.3721 0 18.5312 0.497209 20.3947 1.49163C22.2582 2.48607 23.8661 3.8679 25.2183 5.63712V1.39789C25.2183 0.997222 25.3465 0.664065 25.6029 0.398422C25.8594 0.132806 26.1948 0 26.6092 0C27.0078 0 27.3393 0.132806 27.6036 0.398422C27.8679 0.664065 28 0.997222 28 1.39789V9.85089C28 10.3241 27.8388 10.7188 27.5164 11.0349C27.1941 11.351 26.7975 11.5091 26.3266 11.5091H17.8928C17.5008 11.5091 17.1749 11.3763 16.9151 11.1106C16.6553 10.845 16.5254 10.5119 16.5254 10.1112C16.5254 9.71719 16.6576 9.38965 16.9219 9.12856C17.1862 8.86747 17.5176 8.73692 17.9163 8.73692H23.429C22.3581 7.12545 21.0342 5.82311 19.4572 4.82989C17.8803 3.83667 16.0338 3.34006 13.9176 3.34006C10.9536 3.34006 8.44293 4.37393 6.38563 6.44167C4.32833 8.5094 3.29967 11.0328 3.29967 14.0118C3.29967 16.9909 4.32833 19.5143 6.38563 21.582C8.44293 23.6497 10.9536 24.6836 13.9176 24.6836C15.8747 24.6836 17.7086 24.1797 19.4194 23.1719C21.1302 22.1642 22.4377 20.7963 23.3421 19.0683C23.5691 18.6799 23.8948 18.3978 24.3192 18.2219C24.7435 18.046 25.1613 18.0514 25.5726 18.2383C26.004 18.4094 26.2988 18.6949 26.457 19.0947C26.6152 19.4946 26.6013 19.8935 26.4154 20.2915C25.2539 22.6517 23.5519 24.5265 21.3092 25.9159C19.0666 27.3053 16.6027 28 13.9176 28Z" fill="#435334"/>
</svg>
