<svg width="48" height="38" viewBox="0 0 48 38" fill="none" xmlns="http://www.w3.org/2000/svg">
<path d="M6.61642 22.941C7.3514 21.5828 7.1264 19.9129 6.05394 18.7996C4.4565 17.1371 3.60153 15.1406 3.60153 13.0625C3.60153 8.34961 8.38636 3.5625 15.6011 3.5625C22.8159 3.5625 27.6007 8.34961 27.6007 13.0625C27.6007 17.7754 22.8159 22.5625 15.6011 22.5625C14.6186 22.5625 13.6662 22.466 12.7662 22.2953C11.9862 22.1469 11.1763 22.2508 10.4638 22.607C10.1563 22.7629 9.84131 22.9113 9.51882 23.0523C8.31886 23.5867 7.05141 24.0543 5.77645 24.3883C5.98644 24.0469 6.18144 23.7129 6.36893 23.3789C6.45143 23.2379 6.53392 23.0895 6.60892 22.941H6.61642ZM0.00164904 13.0625C0.00164904 16.1648 1.2916 19.0074 3.44403 21.2488C3.37653 21.375 3.30154 21.5086 3.23404 21.6273C2.46156 22.993 1.5616 24.3363 0.489132 25.4941C-0.0058507 26.0137 -0.133346 26.7707 0.144144 27.4164C0.436634 28.077 1.08161 28.5 1.80159 28.5C5.02648 28.5 8.28886 27.5129 11.0038 26.2957C11.3638 26.1324 11.7237 25.9617 12.0687 25.791C13.2012 26.0137 14.3862 26.125 15.6011 26.125C24.2183 26.125 31.2006 20.2766 31.2006 13.0625C31.2006 5.84844 24.2183 0 15.6011 0C6.98391 0 0.00164904 5.84844 0.00164904 13.0625ZM32.4005 35.625C33.6155 35.625 34.793 35.5062 35.9329 35.291C36.2779 35.4617 36.6379 35.6324 36.9979 35.7957C39.7128 37.0129 42.9752 38 46.2001 38C46.92 38 47.565 37.577 47.85 36.9238C48.135 36.2707 48 35.5137 47.505 35.0016C46.4401 33.8438 45.5401 32.5004 44.7601 31.1348C44.6926 31.0086 44.6176 30.8824 44.5501 30.7563C46.71 28.5074 48 25.6648 48 22.5625C48 15.5562 41.4077 9.83398 33.1355 9.51484C33.443 10.643 33.6005 11.8305 33.6005 13.0625V13.107C40.1403 13.6043 44.4001 18.1168 44.4001 22.5625C44.4001 24.6406 43.5452 26.6371 41.9477 28.2922C40.8752 29.4055 40.6502 31.0828 41.3852 32.4336C41.4677 32.582 41.5502 32.7305 41.6252 32.8715C41.8127 33.2055 42.0152 33.5395 42.2177 33.8809C40.9427 33.5469 39.6753 33.0867 38.4753 32.5449C38.1528 32.4039 37.8379 32.2555 37.5304 32.0996C36.8179 31.7434 36.0079 31.6395 35.2279 31.7879C34.3205 31.966 33.3755 32.0551 32.393 32.0551C27.7657 32.0551 24.1433 30.0883 22.1334 27.4312C20.9334 27.832 19.6735 28.1289 18.3835 28.307C20.9259 32.6414 26.2507 35.625 32.4005 35.625Z" fill="white"/>
</svg>
