<svg width="44" height="39" viewBox="0 0 44 39" fill="none" xmlns="http://www.w3.org/2000/svg">
<path d="M17.0672 38.4227C14.8328 37.9758 13.3805 35.8016 13.8273 33.5672L14.025 32.5875C14.4805 30.293 15.3227 28.1102 16.5 26.125H4.125C1.84766 26.125 0 24.2774 0 22C0 20.4102 0.902344 19.0266 2.22578 18.3391C1.28906 17.5828 0.6875 16.4227 0.6875 15.125C0.6875 13.1141 2.13125 11.4383 4.03047 11.0774C3.65234 10.45 3.4375 9.71954 3.4375 8.93751C3.4375 7.10704 4.63203 5.55157 6.28203 5.01876C6.22187 4.73516 6.1875 4.43438 6.1875 4.12501C6.1875 1.84767 8.03516 1.14441e-05 10.3125 1.14441e-05H18.6914C20.3242 1.14441e-05 21.9141 0.481262 23.2719 1.38361L26.5805 3.5922C28.875 5.12188 30.25 7.70001 30.25 10.4586V20.0149C30.25 22.5242 29.107 24.8875 27.1562 26.4602L26.5203 26.9672C24.243 28.7891 22.6875 31.35 22.1203 34.2031L21.9227 35.1828C21.4758 37.4172 19.3016 38.8695 17.0672 38.4227ZM41.25 24.75H35.75C34.2289 24.75 33 23.5211 33 22V2.75001C33 1.22892 34.2289 1.14441e-05 35.75 1.14441e-05H41.25C42.7711 1.14441e-05 44 1.22892 44 2.75001V22C44 23.5211 42.7711 24.75 41.25 24.75Z" fill="#C3A67E"/>
</svg>
